# xmcd
#
# Track frame offsets:
#	150
#	13153
#	30097
#	46180
#	59007
#	75883
#	91387
#	107872
#	127933
#	144473
#	157687
#	172989
#	190263
#	207931
#	224648
#	241498
#	257737
#	272340
#	288521
#	304355
#	319211
#
# Disc length: 4461 seconds
#
# Revision: 2
# Processed by: cddbd v1.5.1PL0 Copyright (c) Steve Scherf et al.
# Submitted via: audiograbber 1.83.01
#
DISCID=22116b15
DTITLE=Various Artist - Hott Country 044
DYEAR=1900
DGENRE=
TTITLE0=Martina McBride - I Love You
TTITLE1=Clay Walker - Live, Laugh, Love
TTITLE2=Lace - I Want A Man
TTITLE3=Chalee Tennison - Handful Of Water
TTITLE4=Brooks and Dunn - Missing You
TTITLE5=John Michael Montgomery - Home To You
TTITLE6=Pam Tillis - After A Kiss
TTITLE7=Rick Tippe - Shiver 'N' Shake
TTITLE8=Keith Urban - It's A Love Thing
TTITLE9=Lorrie Morgan - Here I Go Aagin
TTITLE10=Susan Ashton - Closer
TTITLE11=John Berry - Love Is For Giving
TTITLE12=Dwight Yoakam - Thinking About Leaving
TTITLE13=Suzy Bogguss - Goodnight
TTITLE14=Jason Sellers - A Matter Of time
TTITLE15=David Ball - I Want To With You
TTITLE16=Lisa Angellea - I Wear Your Love
TTITLE17=Sonya Isaacs - On My Way To You
TTITLE18=Mandy Barnett - The Whispering Wind
TTITLE19=Wilkinsons - Nothing But Love
TTITLE20=Bruce Guthro - Good Love
EXTD=
EXTT0=
EXTT1=
EXTT2=
EXTT3=
EXTT4=
EXTT5=
EXTT6=
EXTT7=
EXTT8=
EXTT9=
EXTT10=
EXTT11=
EXTT12=
EXTT13=
EXTT14=
EXTT15=
EXTT16=
EXTT17=
EXTT18=
EXTT19=
EXTT20=
PLAYORDER=
